<svg width="512" height="512" viewBox="0 0 512 512" fill="none" xmlns="http://www.w3.org/2000/svg">
<rect width="512" height="512" rx="256" fill="white"/>
<path d="M372 96V112C372 142.201 369.304 170.483 364.452 196.691C390.083 197.172 417.307 199.896 445.953 205.274C454.638 206.905 460.356 215.268 458.726 223.953C457.095 232.638 448.731 238.356 440.047 236.726C410.532 231.183 382.872 228.675 357.235 228.608C341.092 288.653 313.284 335.792 281.765 367.737C257.007 392.829 229.205 409.255 202.299 414.063C174.795 418.978 148.147 411.564 129.665 389.19C111.525 367.231 108.705 340.056 118.043 314.119C127.19 288.711 147.787 264.591 176.555 245.095C214.141 219.622 266.967 201.076 331.742 197.316C336.082 175.894 338.879 152.764 339.726 128H142C133.163 128 126 120.837 126 112C126 103.163 133.163 96 142 96H372ZM323.59 229.974C268.641 234.665 224.92 250.974 194.507 271.585C169.618 288.452 154.387 307.638 148.151 324.958C142.106 341.749 144.35 356.722 154.335 368.81C164.352 380.936 178.705 385.772 196.67 382.562C215.232 379.245 237.369 367.171 258.986 345.263C284.635 319.269 308.5 280.414 323.59 229.974Z" fill="black"/>
</svg>
